<mxfile host="app.diagrams.net" agent="Mozilla/5.0 (Windows NT 10.0; Win64; x64) AppleWebKit/537.36 (KHTML, like Gecko) Chrome/122.0.0.0 Safari/537.36" version="26.2.4">
  <diagram name="1 oldal" id="_80ow0Xsr4rpP3SRZX8A">
    <mxGraphModel dx="2867" dy="1073" grid="1" gridSize="10" guides="1" tooltips="1" connect="1" arrows="1" fold="1" page="1" pageScale="1" pageWidth="827" pageHeight="1169" math="0" shadow="0">
      <root>
        <mxCell id="0" />
        <mxCell id="1" parent="0" />
        <mxCell id="pdTnZ0QROW3gij0DqAFF-360" value="" style="rounded=0;whiteSpace=wrap;html=1;" vertex="1" parent="1">
          <mxGeometry x="-530" y="320" width="1080" height="480" as="geometry" />
        </mxCell>
        <mxCell id="pdTnZ0QROW3gij0DqAFF-361" value="" style="rounded=0;whiteSpace=wrap;html=1;" vertex="1" parent="1">
          <mxGeometry x="-530" y="320" width="1080" height="120" as="geometry" />
        </mxCell>
        <mxCell id="pdTnZ0QROW3gij0DqAFF-362" style="edgeStyle=orthogonalEdgeStyle;rounded=0;orthogonalLoop=1;jettySize=auto;html=1;exitX=0.5;exitY=0;exitDx=0;exitDy=0;" edge="1" parent="1" source="pdTnZ0QROW3gij0DqAFF-363">
          <mxGeometry relative="1" as="geometry">
            <mxPoint x="10" y="780" as="targetPoint" />
          </mxGeometry>
        </mxCell>
        <mxCell id="pdTnZ0QROW3gij0DqAFF-363" value="" style="rounded=0;whiteSpace=wrap;html=1;" vertex="1" parent="1">
          <mxGeometry x="-530" y="780" width="1080" height="20" as="geometry" />
        </mxCell>
        <mxCell id="pdTnZ0QROW3gij0DqAFF-364" value="" style="rounded=0;whiteSpace=wrap;html=1;" vertex="1" parent="1">
          <mxGeometry x="450" y="320" width="100" height="120" as="geometry" />
        </mxCell>
        <mxCell id="pdTnZ0QROW3gij0DqAFF-365" value="" style="rounded=0;whiteSpace=wrap;html=1;" vertex="1" parent="1">
          <mxGeometry x="-420" y="350" width="120" height="60" as="geometry" />
        </mxCell>
        <mxCell id="pdTnZ0QROW3gij0DqAFF-366" value="" style="rounded=0;whiteSpace=wrap;html=1;" vertex="1" parent="1">
          <mxGeometry x="180" y="380" width="120" height="60" as="geometry" />
        </mxCell>
        <mxCell id="pdTnZ0QROW3gij0DqAFF-367" value="" style="rounded=0;whiteSpace=wrap;html=1;" vertex="1" parent="1">
          <mxGeometry x="-270" y="350" width="120" height="60" as="geometry" />
        </mxCell>
        <mxCell id="pdTnZ0QROW3gij0DqAFF-368" value="" style="rounded=0;whiteSpace=wrap;html=1;" vertex="1" parent="1">
          <mxGeometry x="30" y="380" width="120" height="60" as="geometry" />
        </mxCell>
        <mxCell id="pdTnZ0QROW3gij0DqAFF-369" value="" style="rounded=0;whiteSpace=wrap;html=1;" vertex="1" parent="1">
          <mxGeometry x="-120" y="350" width="120" height="60" as="geometry" />
        </mxCell>
        <mxCell id="pdTnZ0QROW3gij0DqAFF-370" value="" style="rounded=0;whiteSpace=wrap;html=1;" vertex="1" parent="1">
          <mxGeometry x="-460" y="440" width="940" height="340" as="geometry" />
        </mxCell>
        <mxCell id="pdTnZ0QROW3gij0DqAFF-371" value="Kezdőlap" style="text;html=1;align=center;verticalAlign=middle;whiteSpace=wrap;rounded=0;" vertex="1" parent="1">
          <mxGeometry x="-420" y="350" width="120" height="60" as="geometry" />
        </mxCell>
        <mxCell id="pdTnZ0QROW3gij0DqAFF-372" value="" style="rounded=0;whiteSpace=wrap;html=1;" vertex="1" parent="1">
          <mxGeometry x="-510" y="350" width="60" height="60" as="geometry" />
        </mxCell>
        <mxCell id="pdTnZ0QROW3gij0DqAFF-373" value="&lt;div&gt;Logo&lt;/div&gt;" style="text;html=1;align=center;verticalAlign=middle;whiteSpace=wrap;rounded=0;" vertex="1" parent="1">
          <mxGeometry x="-510" y="350" width="60" height="60" as="geometry" />
        </mxCell>
        <mxCell id="pdTnZ0QROW3gij0DqAFF-374" value="Zenék" style="text;html=1;align=center;verticalAlign=middle;whiteSpace=wrap;rounded=0;" vertex="1" parent="1">
          <mxGeometry x="-270" y="350" width="120" height="60" as="geometry" />
        </mxCell>
        <mxCell id="pdTnZ0QROW3gij0DqAFF-375" value="Filmek/Sorozatok" style="text;html=1;align=center;verticalAlign=middle;whiteSpace=wrap;rounded=0;" vertex="1" parent="1">
          <mxGeometry x="-120" y="350" width="120" height="60" as="geometry" />
        </mxCell>
        <mxCell id="pdTnZ0QROW3gij0DqAFF-376" value="Rendelési kosár" style="text;html=1;align=center;verticalAlign=middle;whiteSpace=wrap;rounded=0;" vertex="1" parent="1">
          <mxGeometry x="30" y="390" width="120" height="60" as="geometry" />
        </mxCell>
        <mxCell id="pdTnZ0QROW3gij0DqAFF-377" value="Footer (C)" style="text;html=1;align=center;verticalAlign=middle;whiteSpace=wrap;rounded=0;" vertex="1" parent="1">
          <mxGeometry x="-530" y="780" width="1080" height="20" as="geometry" />
        </mxCell>
        <mxCell id="pdTnZ0QROW3gij0DqAFF-378" value="margin" style="text;html=1;align=center;verticalAlign=middle;whiteSpace=wrap;rounded=0;" vertex="1" parent="1">
          <mxGeometry x="-530" y="440" width="70" height="340" as="geometry" />
        </mxCell>
        <mxCell id="pdTnZ0QROW3gij0DqAFF-379" value="margin" style="text;html=1;align=center;verticalAlign=middle;whiteSpace=wrap;rounded=0;" vertex="1" parent="1">
          <mxGeometry x="480" y="440" width="70" height="340" as="geometry" />
        </mxCell>
        <mxCell id="pdTnZ0QROW3gij0DqAFF-380" value="Fiók bej/reg" style="rounded=0;whiteSpace=wrap;html=1;" vertex="1" parent="1">
          <mxGeometry x="455" y="360" width="90" height="40" as="geometry" />
        </mxCell>
        <mxCell id="pdTnZ0QROW3gij0DqAFF-381" value="" style="rounded=0;whiteSpace=wrap;html=1;" vertex="1" parent="1">
          <mxGeometry x="320" y="350" width="120" height="60" as="geometry" />
        </mxCell>
        <mxCell id="pdTnZ0QROW3gij0DqAFF-382" value="Kapcsolat" style="text;html=1;align=center;verticalAlign=middle;whiteSpace=wrap;rounded=0;" vertex="1" parent="1">
          <mxGeometry x="320" y="350" width="120" height="60" as="geometry" />
        </mxCell>
        <mxCell id="pdTnZ0QROW3gij0DqAFF-383" value="Foglalási kosár" style="text;html=1;align=center;verticalAlign=middle;whiteSpace=wrap;rounded=0;" vertex="1" parent="1">
          <mxGeometry x="180" y="390" width="120" height="60" as="geometry" />
        </mxCell>
        <mxCell id="pdTnZ0QROW3gij0DqAFF-384" value="Kosár" style="rounded=0;whiteSpace=wrap;html=1;" vertex="1" parent="1">
          <mxGeometry x="30" y="340" width="270" height="60" as="geometry" />
        </mxCell>
        <mxCell id="pdTnZ0QROW3gij0DqAFF-385" value="A kosáron belül lesz külön rendelési és foglalási kosár" style="text;html=1;align=center;verticalAlign=middle;whiteSpace=wrap;rounded=0;" vertex="1" parent="1">
          <mxGeometry x="170" y="250" width="200" height="30" as="geometry" />
        </mxCell>
        <mxCell id="pdTnZ0QROW3gij0DqAFF-386" value="" style="endArrow=classic;html=1;rounded=0;entryX=0.37;entryY=0;entryDx=0;entryDy=0;shape=flexArrow;entryPerimeter=0;exitX=0.135;exitY=0.867;exitDx=0;exitDy=0;exitPerimeter=0;" edge="1" parent="1" source="pdTnZ0QROW3gij0DqAFF-385" target="pdTnZ0QROW3gij0DqAFF-384">
          <mxGeometry width="50" height="50" relative="1" as="geometry">
            <mxPoint x="50" y="300" as="sourcePoint" />
            <mxPoint x="-70" y="380" as="targetPoint" />
          </mxGeometry>
        </mxCell>
        <mxCell id="pdTnZ0QROW3gij0DqAFF-387" value="&lt;font style=&quot;font-size: 22px;&quot;&gt;Foglalását befogadtuk a rendszerbe!&lt;/font&gt;&lt;div&gt;&lt;span style=&quot;font-size: 22px;&quot;&gt;&lt;br&gt;&lt;/span&gt;&lt;div&gt;&lt;font style=&quot;font-size: 22px;&quot;&gt;A foglalásról értesítő email-t küldtünk a megadott email címre!&lt;/font&gt;&lt;/div&gt;&lt;/div&gt;" style="rounded=0;whiteSpace=wrap;html=1;" vertex="1" parent="1">
          <mxGeometry x="-200" y="490" width="400" height="210" as="geometry" />
        </mxCell>
      </root>
    </mxGraphModel>
  </diagram>
</mxfile>
